<svg width="375" height="374" viewBox="0 0 375 374" fill="none" xmlns="http://www.w3.org/2000/svg">
<path d="M156.04 118.743C144.433 118.743 138.52 108.778 141.367 93.7765L147.499 62.3495H161.625L155.493 93.7765C154.069 100.785 157.135 105.274 163.158 105.274C170.275 105.274 176.517 99.4706 177.831 92.3529L183.744 62.3495H197.76L187.029 117.1H173.013L174.546 109.326C169.618 114.91 163.048 118.743 156.04 118.743ZM217.337 118.743C208.249 118.743 200.145 114.582 197.298 106.807L207.482 99.7991C210.22 104.617 215.147 107.355 219.527 107.464C224.674 107.574 228.616 105.384 229.273 101.88C230.039 98.266 226.097 96.952 220.951 95.5285C210.986 92.9005 203.212 87.2064 205.073 77.3512C206.935 67.4961 216.571 60.7069 228.725 60.7069C235.843 60.7069 243.727 64.211 246.793 71.1096L236.062 78.5557C234.201 74.6137 230.587 71.9856 226.426 71.9856C222.374 71.9856 219.089 74.1757 218.432 77.3512C217.775 81.0743 221.717 82.4978 227.849 84.2498C237.376 86.6589 244.603 92.1339 242.742 101.661C240.771 111.735 230.368 118.743 217.337 118.743ZM269.731 118.743C257.358 118.743 252.54 112.392 255.168 98.8136L259.657 75.8182H250.568L253.197 62.3495H262.285L265.023 48.1142H279.039L276.301 62.3495H288.785L286.047 75.8182H273.673L269.184 98.8136C268.308 103.413 270.06 105.931 274.002 105.931C276.301 105.931 278.272 105.493 280.572 104.398L278.053 117.1C275.754 118.195 271.921 118.743 269.731 118.743Z" fill="#FBEEE0"/>
<path d="M29.4467 207.953L44.339 131.302H76.5325C90.0012 131.302 98.2138 139.624 96.0238 151.012C94.8193 157.145 90.3297 162.729 84.1976 166.562C90.2202 170.175 94.1623 176.198 92.5197 184.849C90.0012 198.208 77.6275 207.953 63.1733 207.953H29.4467ZM46.967 194.375H65.6918C71.4954 194.375 76.642 190.214 77.6275 184.849C78.7225 179.592 75.2185 175.541 69.4149 175.541H50.6901L46.967 194.375ZM53.2086 162.839H69.9624C75.109 162.839 79.708 158.349 80.5841 153.75C81.4601 149.26 78.613 144.88 73.4664 144.88H56.7127L53.2086 162.839ZM125.011 209.596C108.586 209.596 97.8545 197.003 101.03 180.578C104.315 164.153 119.974 151.56 136.399 151.56C154.467 151.56 162.57 166.562 156.985 186.053H114.827C115.375 192.952 120.193 197.441 127.42 197.66C132.676 197.879 137.932 196.018 141.765 192.514L149.649 200.069C143.188 205.873 133.881 209.596 125.011 209.596ZM116.798 175.322H145.488C145.926 168.861 141.874 163.496 134.1 163.496C126.763 163.496 120.083 168.204 116.798 175.322ZM187.537 209.596C171.769 209.596 161.695 197.003 164.87 180.578C168.156 164.153 183.157 151.56 198.925 151.56C207.029 151.56 212.723 155.283 215.57 161.634L217.212 153.202H231.338L220.607 207.953H206.481L208.124 199.631C202.758 205.873 195.64 209.596 187.537 209.596ZM178.996 180.578C177.135 189.776 182.829 196.784 192.355 196.784C201.335 196.784 209.985 189.886 211.847 180.797V180.359C213.599 171.27 207.576 164.372 198.597 164.372C189.07 164.372 180.748 171.38 178.996 180.578ZM255.713 209.596C243.34 209.596 238.521 203.245 241.15 189.667L245.639 166.671H236.55L239.179 153.202H248.267L251.005 138.967H265.021L262.283 153.202H274.767L272.029 166.671H259.655L255.166 189.667C254.29 194.266 256.042 196.784 259.984 196.784C262.283 196.784 264.254 196.346 266.554 195.251L264.035 207.953C261.736 209.048 257.903 209.596 255.713 209.596Z" fill="#FBEEE0"/>
<path d="M158.083 307.915L164.324 275.721H132.678L126.437 307.915H111.544L126.437 231.263H141.329L135.525 261.267H167.171L172.975 231.263H187.867L172.975 307.915H158.083ZM204.915 245.937C200.097 245.937 197.141 242.214 198.126 237.505C199.002 232.906 203.382 228.964 208.2 228.964C212.799 228.964 215.975 232.906 215.099 237.505C214.113 242.214 209.514 245.937 204.915 245.937ZM185.862 307.915L196.593 253.164H210.609L199.878 307.915H185.862ZM235.474 309.557C223.1 309.557 218.282 303.206 220.91 289.628L225.4 266.632H216.311L218.939 253.164H228.028L230.765 238.928H244.781L242.044 253.164H254.527L251.79 266.632H239.416L234.926 289.628C234.05 294.227 235.802 296.745 239.744 296.745C242.044 296.745 244.015 296.307 246.315 295.212L243.796 307.915C241.496 309.01 237.664 309.557 235.474 309.557Z" fill="#FBEEE0"/>
<path fill-rule="evenodd" clip-rule="evenodd" d="M277.491 319.98L296.517 195.828C296.517 195.828 288.345 181.612 294.25 164.925C301.448 144.583 324.949 133.721 344.154 139.951C363.359 146.181 378.774 165.552 371.551 190C367.054 205.218 355.783 211.604 355.783 211.604L309.886 328.81L296.737 325.441L291.272 323.83L277.491 319.98ZM292.841 309.746L300.803 311.725L337.685 219.504C337.685 219.504 328.189 219.692 321.246 217.642C314.302 215.592 308.208 210.803 308.208 210.803L292.841 309.746ZM306.168 175.345C306.168 175.345 303.731 198.744 325.63 204.074C347.531 209.404 357.061 188.805 357.061 188.805C357.061 188.805 340.673 193.798 328.334 190.534C315.994 187.272 306.168 175.345 306.168 175.345ZM308.675 168.487C308.675 168.487 319.33 179.253 331.987 182.694C344.645 186.136 359.133 182.204 359.133 182.204C359.133 182.204 360.585 157.959 338.372 153.04C316.159 148.121 308.675 168.487 308.675 168.487Z" fill="#FEEAE0"/>
<path d="M8.22706 364.031C18.1241 332.079 39.2502 331.376 63.8529 332.226C92.6127 333.218 113.694 341.814 145.95 345.857C181.621 350.328 272.19 353.601 291.902 323.138" stroke="#FEEAE0" stroke-width="9.12514" stroke-miterlimit="1.5" stroke-linecap="round" stroke-linejoin="round"/>
<path d="M167.548 14.8121C167.548 14.9094 167.442 14.9182 167.006 14.8475C166.553 14.7767 166.437 14.7767 166.357 14.8828C166.286 14.9801 166.171 14.9978 165.904 14.9536C165.655 14.9094 165.522 14.9182 165.459 15.0066C165.388 15.0862 165.237 15.1039 164.944 15.0774C164.615 15.042 164.526 15.0508 164.526 15.1569C164.526 15.2719 164.446 15.2719 164.028 15.2012C163.664 15.1393 163.477 15.1481 163.326 15.2277C163.201 15.2984 162.997 15.3161 162.801 15.2807C162.57 15.2365 162.473 15.2542 162.419 15.3603C162.348 15.4753 162.268 15.4841 161.957 15.4134C161.646 15.3515 161.575 15.3603 161.53 15.4664C161.486 15.5725 161.388 15.5902 161.05 15.546C160.686 15.493 160.615 15.5106 160.615 15.6256C160.615 15.7229 160.561 15.7582 160.464 15.7229C160.375 15.6963 160.117 15.6521 159.895 15.6256C159.575 15.5814 159.459 15.5902 159.406 15.6963C159.343 15.8024 159.246 15.8201 158.943 15.7582C158.641 15.7052 158.543 15.7229 158.508 15.8113C158.472 15.9086 158.357 15.9262 158.028 15.882C157.654 15.829 157.592 15.8467 157.592 15.9705C157.592 16.0766 157.539 16.1119 157.441 16.0766C156.89 15.9262 156.703 15.9262 156.703 16.0677C156.703 16.1915 156.632 16.2004 156.285 16.1562C156.045 16.1208 155.788 16.0766 155.699 16.05C155.61 16.0324 155.521 16.0677 155.494 16.1473C155.459 16.2534 155.352 16.2711 155.005 16.2269C154.65 16.1827 154.57 16.2004 154.57 16.3153C154.57 16.4214 154.508 16.4303 154.241 16.3684C153.77 16.2623 153.681 16.2711 153.681 16.4214C153.681 16.5187 153.592 16.5364 153.236 16.4922C152.881 16.448 152.792 16.4656 152.792 16.5717C152.792 16.6779 152.694 16.6867 152.205 16.6071C151.743 16.5452 151.61 16.5452 151.547 16.6425C151.494 16.7221 151.37 16.7398 151.121 16.6955C150.845 16.6513 150.738 16.6779 150.676 16.7751C150.614 16.8901 150.534 16.8989 150.223 16.8282C149.912 16.7663 149.841 16.7751 149.796 16.8812C149.752 16.9873 149.654 17.005 149.316 16.9608C148.952 16.9078 148.881 16.9255 148.881 17.0404C148.881 17.1377 148.827 17.173 148.729 17.1377C148.641 17.1111 148.383 17.0669 148.16 17.0404C147.84 16.9962 147.725 17.005 147.672 17.1111C147.609 17.2173 147.512 17.2349 147.209 17.173C146.907 17.12 146.809 17.1377 146.774 17.2261C146.738 17.3234 146.623 17.341 146.294 17.2968C145.92 17.2438 145.858 17.2615 145.858 17.3853C145.858 17.4914 145.805 17.5267 145.707 17.4914C145.156 17.341 144.969 17.341 144.969 17.4825C144.969 17.6063 144.898 17.6152 144.551 17.571C144.311 17.5356 144.054 17.4914 143.965 17.4648C143.876 17.4472 143.787 17.4825 143.76 17.5621C143.725 17.6682 143.618 17.6859 143.271 17.6417C142.916 17.5975 142.836 17.6152 142.836 17.7213C142.836 17.8362 142.765 17.8451 142.462 17.7832C141.947 17.6859 141.947 17.6859 141.947 17.8362C141.947 17.9335 141.858 17.9512 141.502 17.907C141.182 17.8716 141.058 17.8893 141.058 17.9689C141.058 18.0485 140.907 18.0573 140.436 18.0131C139.964 17.9689 139.813 17.9777 139.813 18.0573C139.813 18.1369 139.698 18.1546 139.369 18.1103C138.995 18.0573 138.924 18.075 138.924 18.1899C138.924 18.3314 138.738 18.3314 138.195 18.1811C138.089 18.1457 138.035 18.1811 138.035 18.2872C138.035 18.411 137.973 18.4287 137.591 18.3756C137.218 18.3226 137.146 18.3403 137.146 18.4641C137.146 18.5436 137.093 18.5878 137.031 18.5613C136.96 18.5348 136.684 18.4906 136.409 18.4552C135.973 18.4022 135.902 18.411 135.902 18.5348C135.902 18.6409 135.849 18.6674 135.68 18.6321C135.555 18.6055 135.36 18.5702 135.235 18.5436C135.075 18.5083 135.013 18.5348 135.013 18.6321C135.013 18.747 134.933 18.7647 134.569 18.7116C134.186 18.6586 134.124 18.6763 134.124 18.8001C134.124 18.9062 134.071 18.9415 133.973 18.9062C133.422 18.7559 133.235 18.7559 133.235 18.8973C133.235 19.0123 133.164 19.03 132.791 18.9769C132.435 18.9327 132.346 18.9415 132.346 19.0477C132.346 19.1538 132.266 19.1626 131.946 19.1184C131.635 19.0742 131.519 19.083 131.466 19.1891C131.413 19.2864 131.297 19.3129 131.031 19.2776C130.728 19.2334 130.666 19.251 130.63 19.3925C130.595 19.5075 130.542 19.5428 130.426 19.4986C130.337 19.4633 130.23 19.4986 130.159 19.5959C130.097 19.6843 129.973 19.7374 129.884 19.7197C129.768 19.702 129.697 19.7639 129.635 19.9584C129.564 20.153 129.493 20.2149 129.35 20.206C129.235 20.1883 129.146 20.2502 129.119 20.3564C129.093 20.4625 128.995 20.5332 128.888 20.5332C128.755 20.5332 128.675 20.6393 128.55 20.9842C128.426 21.3202 128.355 21.4175 128.239 21.3821C128.115 21.3556 128.053 21.444 127.946 21.7977C127.875 22.0541 124.612 36.0607 120.701 52.9322C116.79 69.8038 113.563 83.6335 113.545 83.6689C113.456 83.8103 113.136 83.6512 113.189 83.5008C113.225 83.3859 113.145 83.324 112.834 83.2444C112.532 83.1648 112.434 83.0941 112.452 82.988C112.469 82.8819 112.38 82.82 112.14 82.7581C111.909 82.705 111.776 82.6077 111.723 82.4751C111.669 82.3425 111.536 82.2452 111.305 82.1922C111.074 82.1391 110.976 82.0684 110.994 81.9711C111.011 81.8738 110.86 81.7942 110.434 81.6704C110.034 81.5555 109.856 81.4582 109.856 81.361C109.856 81.2637 109.687 81.1753 109.278 81.0603C108.842 80.9454 108.7 80.8746 108.718 80.7685C108.736 80.6624 108.558 80.574 107.962 80.4148C107.385 80.2556 107.189 80.1672 107.207 80.0611C107.225 79.9727 107.127 79.9019 106.922 79.8489C105.553 79.504 105.233 79.3979 105.233 79.283C105.233 79.1326 104.833 79.0177 102.211 78.4164C99.304 77.7444 99.0373 77.7001 98.8862 77.8239C98.7973 77.9035 98.5395 77.877 97.8106 77.7355C97.0461 77.594 96.8328 77.5764 96.7794 77.6648C96.7261 77.762 96.575 77.762 96.0238 77.6648C95.6505 77.6029 95.286 77.5321 95.2149 77.5056C95.1527 77.4791 95.0993 77.5233 95.0993 77.6029C95.0993 77.7709 95.0993 77.7709 94.4326 77.6471C93.997 77.5675 93.8903 77.5764 93.8103 77.6825C93.7303 77.7886 93.6326 77.7974 93.2503 77.7267C92.8947 77.6559 92.7258 77.6559 92.5658 77.7444C92.4414 77.8151 92.2369 77.8328 92.0413 77.7974C91.8102 77.7532 91.7124 77.7709 91.6591 77.877C91.588 77.992 91.508 78.0008 91.2057 77.9389C90.8857 77.8682 90.8324 77.877 90.7879 78.0096C90.7435 78.1334 90.6813 78.1511 90.3612 78.0892C90.0768 78.045 89.9701 78.0539 89.9168 78.1511C89.8634 78.2395 89.739 78.2572 89.4545 78.2307C89.1256 78.1865 89.0545 78.2042 89.0545 78.3191C89.0545 78.4341 89.0011 78.4518 88.7878 78.4076C88.5745 78.3633 88.5211 78.381 88.5211 78.5048C88.5211 78.6286 88.4589 78.6463 88.1211 78.6021C87.8011 78.5579 87.7033 78.5756 87.6588 78.6817C87.6233 78.7701 87.5433 78.8055 87.401 78.7701C87.2588 78.7347 87.1966 78.7613 87.1699 78.8674C87.1432 78.9912 87.0632 79.0177 86.7699 79C86.5743 78.9823 86.3788 79.0088 86.3432 79.0619C86.3165 79.115 86.1921 79.1592 86.0676 79.1592C85.9343 79.1592 85.8543 79.2122 85.8543 79.3006C85.8543 79.4068 85.8009 79.4333 85.6409 79.3891C85.472 79.3449 85.4098 79.3802 85.3654 79.504C85.3298 79.619 85.2587 79.6543 85.0987 79.619C84.9298 79.5925 84.8764 79.619 84.8764 79.7339C84.8764 79.8489 84.8231 79.8754 84.6542 79.8489C84.5031 79.8135 84.4231 79.8489 84.3875 79.955C84.352 80.0611 84.272 80.0965 84.1208 80.0611C83.9608 80.0346 83.8986 80.0611 83.8986 80.1672C83.8986 80.2556 83.8186 80.3087 83.6764 80.3087C83.5341 80.3087 83.4541 80.3618 83.4541 80.4502C83.4541 80.5563 83.4008 80.5828 83.2408 80.5386C83.0719 80.4944 83.0097 80.5298 82.9652 80.6536C82.9296 80.7685 82.8585 80.8039 82.743 80.7773C82.6363 80.7508 82.5474 80.7862 82.5118 80.8746C82.4852 80.9542 82.3607 81.0161 82.2452 81.0161C82.1118 81.0161 82.0318 81.0692 82.0318 81.1576C82.0318 81.2637 81.9696 81.2902 81.8185 81.2637C81.6585 81.2283 81.5873 81.2637 81.5607 81.3875C81.534 81.4759 81.4362 81.5466 81.3207 81.5466C81.1873 81.5466 81.0984 81.6262 81.0273 81.8119C80.9473 82.0153 80.8851 82.0595 80.7339 82.0241C80.5917 81.9888 80.5295 82.0241 80.4939 82.1568C80.4673 82.2806 80.3961 82.3159 80.2717 82.2806C80.1295 82.2452 80.0761 82.2983 79.9961 82.5459C79.9072 82.7934 79.8539 82.8465 79.7117 82.8111C79.5783 82.7758 79.5161 82.8111 79.4805 82.9526C79.445 83.0852 79.3739 83.1383 79.2494 83.1206C79.1072 83.1029 79.045 83.1648 78.9738 83.3859C78.9027 83.6335 78.8583 83.6689 78.6894 83.6335C78.5116 83.5893 78.476 83.6246 78.4227 83.8988C78.3694 84.164 78.3338 84.2082 78.1649 84.1817C77.996 84.1463 77.9427 84.1906 77.8627 84.4735C77.7826 84.73 77.7293 84.7919 77.596 84.7565C77.4626 84.7211 77.4004 84.783 77.3204 85.0394C77.2404 85.287 77.1782 85.3578 77.0448 85.3224C76.9115 85.287 76.8493 85.3666 76.7337 85.7557C76.6092 86.1359 76.547 86.2243 76.3959 86.2067C76.2448 86.189 76.1914 86.2774 76.0937 86.6488C75.987 87.029 75.9336 87.1086 75.7825 87.0909C75.6314 87.0732 75.5692 87.1705 75.4269 87.6657C75.2936 88.1343 75.2136 88.267 75.0625 88.2847C74.9114 88.3023 74.8402 88.4527 74.6624 89.0893C74.4847 89.7348 74.4224 89.8675 74.298 89.8321C74.1113 89.7879 73.978 90.2212 73.3646 92.927C72.9201 94.9077 72.9112 94.9873 73.0979 94.9873C73.2579 94.9873 73.2579 95.1376 73.0979 95.8715C72.929 96.6232 72.9379 96.7558 73.1068 96.7558C73.2579 96.7558 73.2579 96.9945 73.089 97.7815C73.0446 98.0114 73.0623 98.0733 73.2135 98.1175C73.3646 98.1706 73.3735 98.2148 73.3113 98.595C73.2135 99.0725 73.2579 99.2317 73.4535 99.2317C73.5513 99.2317 73.5868 99.2848 73.5513 99.382C73.5246 99.4705 73.4802 99.6827 73.4535 99.8684C73.4001 100.134 73.4179 100.196 73.569 100.24C73.7202 100.293 73.7379 100.355 73.7024 100.647C73.6579 100.938 73.6757 101 73.8091 101C73.9335 101 73.9513 101.062 73.9246 101.345C73.898 101.637 73.9246 101.708 74.058 101.743C74.2002 101.778 74.2269 101.849 74.1913 102.114C74.1557 102.38 74.1824 102.45 74.3246 102.486C74.4669 102.521 74.4847 102.583 74.4491 102.866C74.4135 103.167 74.4313 103.211 74.5736 103.211C74.698 103.211 74.7425 103.273 74.7425 103.432C74.7425 103.573 74.7958 103.653 74.8758 103.653C74.9736 103.653 75.0091 103.75 75.0091 103.998C75.0091 104.263 75.0447 104.352 75.178 104.387C75.3025 104.413 75.338 104.484 75.3025 104.617C75.2669 104.767 75.2936 104.802 75.4536 104.802C75.6314 104.802 75.6492 104.838 75.6136 105.156C75.587 105.448 75.6136 105.51 75.7381 105.51C75.8447 105.51 75.8981 105.581 75.8981 105.722C75.8981 105.864 75.9603 105.952 76.0848 105.979C76.2181 106.014 76.2626 106.076 76.2181 106.173C76.1825 106.279 76.2181 106.341 76.3426 106.368C76.4403 106.394 76.5203 106.491 76.5203 106.589C76.5203 106.695 76.6004 106.783 76.707 106.81C76.8315 106.845 76.8759 106.916 76.8493 107.022C76.8226 107.128 76.867 107.19 77.0093 107.225C77.1604 107.261 77.2048 107.323 77.1693 107.446C77.1426 107.553 77.1871 107.623 77.3115 107.659C77.4271 107.685 77.4982 107.774 77.4982 107.889C77.4982 108.021 77.5515 108.074 77.6849 108.074C77.8271 108.074 77.8627 108.118 77.8271 108.251C77.7915 108.384 77.836 108.446 77.996 108.481C78.156 108.525 78.2005 108.578 78.1649 108.693C78.1293 108.799 78.1738 108.861 78.2982 108.897C78.4049 108.923 78.476 109.012 78.476 109.126C78.476 109.25 78.5294 109.312 78.6538 109.312C78.7694 109.312 78.8316 109.374 78.8316 109.48C78.8316 109.577 78.9116 109.684 79.0094 109.71C79.1072 109.737 79.1872 109.834 79.1872 109.922C79.1872 110.028 79.3027 110.117 79.5428 110.188C79.8361 110.276 79.8983 110.329 79.8539 110.462C79.8183 110.586 79.8539 110.63 80.005 110.656C80.1384 110.674 80.2095 110.745 80.2095 110.851C80.2095 110.975 80.3073 111.045 80.565 111.125C80.814 111.196 80.9117 111.266 80.894 111.372C80.8762 111.47 80.9473 111.541 81.0984 111.576C81.2584 111.611 81.3118 111.673 81.2762 111.779C81.2406 111.894 81.3207 111.956 81.6229 112.036C81.9429 112.115 82.0051 112.168 81.9696 112.301C81.934 112.434 82.0051 112.487 82.3163 112.549C82.6007 112.61 82.6985 112.672 82.6896 112.787C82.6807 112.902 82.7785 112.973 83.063 113.044C83.3386 113.123 83.4541 113.194 83.4541 113.309C83.4541 113.406 83.5697 113.495 83.8097 113.565C84.0319 113.636 84.1653 113.725 84.1653 113.813C84.1653 113.91 84.3431 114.008 84.7431 114.123C85.1698 114.246 85.3209 114.326 85.3209 114.441C85.3209 114.556 85.472 114.635 85.8898 114.741C86.2899 114.856 86.4499 114.936 86.441 115.033C86.4321 115.131 86.5388 115.201 86.7432 115.254C87.7566 115.511 87.9789 115.599 87.9344 115.723C87.8811 115.838 88.2989 116.006 89.0989 116.165C89.6856 116.289 89.9523 116.404 89.9168 116.519C89.8545 116.651 90.2368 116.758 93.197 117.438C96.1038 118.093 96.1749 118.111 96.2638 117.96C96.3261 117.854 96.9394 117.934 98.184 118.217C98.3351 118.252 98.3884 118.225 98.3884 118.111C98.3884 118.022 98.4329 117.978 98.504 118.004C98.5662 118.031 98.9307 118.102 99.3129 118.164C99.8818 118.252 100.015 118.252 100.077 118.155C100.149 118.049 100.531 118.066 101.126 118.217C101.269 118.252 101.322 118.225 101.322 118.111C101.322 117.996 101.375 117.969 101.544 118.013C102.149 118.164 102.54 118.172 102.593 118.04C102.638 117.934 102.709 117.925 103.02 117.987C103.331 118.057 103.411 118.049 103.473 117.942C103.535 117.836 103.642 117.819 103.944 117.863C104.255 117.898 104.353 117.881 104.398 117.774C104.424 117.695 104.495 117.651 104.549 117.668C104.611 117.686 104.789 117.721 104.949 117.748C105.171 117.783 105.233 117.766 105.233 117.651C105.233 117.536 105.304 117.518 105.678 117.562C106.042 117.606 106.122 117.589 106.122 117.474C106.122 117.377 106.184 117.35 106.353 117.385C106.504 117.412 106.602 117.385 106.629 117.297C106.673 117.191 106.771 117.173 107.073 117.217C107.376 117.253 107.456 117.244 107.456 117.138C107.456 117.049 107.545 117.005 107.722 117.005C107.891 117.005 107.989 116.961 107.989 116.881C107.989 116.784 108.078 116.766 108.353 116.802C108.629 116.846 108.745 116.819 108.798 116.722C108.842 116.634 108.958 116.598 109.1 116.634C109.269 116.66 109.322 116.634 109.322 116.519C109.322 116.404 109.376 116.377 109.536 116.404C109.696 116.439 109.767 116.404 109.794 116.28C109.829 116.147 109.891 116.13 110.069 116.174C110.247 116.218 110.3 116.192 110.3 116.086C110.3 115.997 110.38 115.944 110.523 115.944C110.665 115.944 110.745 115.891 110.745 115.803C110.745 115.696 110.798 115.67 110.967 115.714C111.127 115.758 111.207 115.732 111.243 115.635C111.278 115.564 111.394 115.502 111.509 115.502C111.643 115.502 111.723 115.449 111.723 115.36C111.723 115.254 111.785 115.228 111.936 115.254C112.096 115.29 112.167 115.254 112.203 115.131C112.229 115.007 112.292 114.971 112.416 115.016C112.549 115.051 112.612 115.016 112.647 114.901C112.692 114.777 112.763 114.741 112.923 114.777C113.083 114.803 113.145 114.777 113.145 114.671C113.145 114.582 113.225 114.529 113.367 114.529C113.509 114.529 113.589 114.476 113.589 114.397C113.589 114.317 113.669 114.264 113.803 114.264C113.954 114.264 114.043 114.184 114.123 113.99C114.212 113.787 114.283 113.733 114.416 113.769C114.532 113.795 114.603 113.76 114.629 113.636C114.665 113.504 114.727 113.468 114.878 113.504C115.038 113.548 115.092 113.504 115.163 113.265C115.225 113.053 115.287 112.991 115.438 113C115.554 113.017 115.643 112.955 115.678 112.84C115.723 112.717 115.794 112.672 115.91 112.699C116.034 112.734 116.096 112.672 116.185 112.442C116.265 112.213 116.336 112.142 116.47 112.159C116.603 112.177 116.665 112.115 116.727 111.894C116.79 111.682 116.87 111.611 117.012 111.611C117.154 111.611 117.234 111.541 117.296 111.319C117.359 111.107 117.421 111.045 117.554 111.063C117.696 111.081 117.759 111.019 117.821 110.798C117.883 110.603 117.972 110.497 118.096 110.479C118.239 110.462 118.327 110.338 118.434 110.011C118.559 109.648 118.621 109.569 118.754 109.604C118.888 109.639 118.95 109.56 119.074 109.162C119.199 108.782 119.261 108.693 119.385 108.72C119.519 108.755 119.581 108.649 119.732 108.118C119.892 107.588 119.945 107.482 120.088 107.517C120.248 107.561 120.328 107.358 120.594 106.306C120.648 106.094 120.728 105.987 120.852 105.97C120.994 105.952 121.065 105.828 121.172 105.439C121.323 104.926 134.48 48.2634 134.48 48.1573C134.48 48.1307 134.56 48.1219 134.666 48.1484C134.773 48.1749 134.862 48.1484 134.897 48.0688C134.933 47.9716 135.04 47.9539 135.377 47.9981C135.751 48.0512 135.813 48.0335 135.813 47.9097C135.813 47.8036 135.866 47.7682 135.973 47.8036C136.515 47.9539 136.702 47.9539 136.702 47.8124C136.702 47.6975 136.773 47.6798 137.146 47.7328C137.502 47.777 137.591 47.7682 137.591 47.6621C137.591 47.556 137.689 47.5471 138.178 47.6267C138.64 47.6975 138.773 47.6886 138.835 47.5913C138.889 47.5118 139.022 47.4941 139.315 47.5294C139.636 47.5737 139.724 47.5648 139.724 47.4587C139.724 47.3614 139.813 47.3438 140.169 47.388C140.498 47.4233 140.613 47.4056 140.613 47.3261C140.613 47.2465 140.729 47.2288 141.058 47.273C141.431 47.3261 141.502 47.3084 141.502 47.1934C141.502 47.0962 141.556 47.0608 141.662 47.0962C141.742 47.1138 142.027 47.1669 142.285 47.1934C142.685 47.2465 142.747 47.2376 142.747 47.105C142.747 46.9635 142.925 46.9635 143.485 47.1138C143.582 47.1492 143.636 47.1138 143.636 47.0077C143.636 46.8839 143.698 46.8663 144.08 46.9193C144.445 46.9724 144.525 46.9547 144.525 46.8397C144.525 46.7425 144.587 46.7159 144.747 46.7513C144.871 46.7778 145.067 46.8132 145.191 46.8397C145.36 46.8751 145.414 46.8486 145.414 46.7425C145.414 46.6187 145.485 46.6098 145.92 46.6629C146.196 46.6982 146.471 46.7425 146.543 46.769C146.605 46.7955 146.658 46.7513 146.658 46.6717C146.658 46.5479 146.729 46.5302 147.094 46.5833C147.432 46.6275 147.529 46.6098 147.574 46.5037C147.618 46.3976 147.689 46.3888 147.965 46.4507C148.418 46.5568 148.436 46.5479 148.436 46.3888C148.436 46.2738 148.507 46.265 148.845 46.318C149.138 46.3622 149.272 46.3445 149.325 46.265C149.387 46.1677 149.521 46.1677 149.983 46.2296C150.472 46.3092 150.57 46.3003 150.57 46.1942C150.57 46.0881 150.658 46.0704 151.014 46.1146C151.37 46.1589 151.458 46.1412 151.458 46.0439C151.458 45.8936 151.458 45.8936 151.974 45.9908C152.276 46.0527 152.347 46.0439 152.347 45.9289C152.347 45.8228 152.427 45.814 152.783 45.8582C153.112 45.9024 153.227 45.8847 153.263 45.7963C153.299 45.699 153.405 45.6902 153.743 45.7432C154.374 45.8494 154.481 45.8405 154.481 45.6814C154.481 45.5487 154.676 45.5487 155.219 45.699C155.317 45.7344 155.37 45.699 155.37 45.6018C155.37 45.478 155.432 45.4603 155.814 45.5133C156.188 45.5664 156.259 45.5487 156.259 45.4338C156.259 45.3277 156.321 45.3011 156.481 45.3365C156.605 45.363 156.801 45.3984 156.926 45.4249C157.086 45.4603 157.148 45.4338 157.148 45.3365C157.148 45.2127 157.228 45.2039 157.619 45.2481C157.868 45.2746 158.152 45.3188 158.241 45.3453C158.339 45.3807 158.392 45.3453 158.392 45.2481C158.392 45.1331 158.463 45.1154 158.828 45.1685C159.166 45.2127 159.263 45.195 159.308 45.0889C159.352 44.9828 159.423 44.9739 159.699 45.0358C160.152 45.142 160.17 45.1331 160.17 44.9739C160.17 44.859 160.241 44.8502 160.579 44.9032C160.872 44.9474 161.006 44.9297 161.059 44.8502C161.121 44.7529 161.255 44.7529 161.717 44.8148C162.206 44.8944 162.304 44.8855 162.304 44.7794C162.304 44.6733 162.393 44.6556 162.748 44.6998C163.104 44.744 163.193 44.7264 163.193 44.6291C163.193 44.4788 163.193 44.4788 163.708 44.576C164.01 44.6379 164.082 44.6291 164.082 44.5141C164.082 44.408 164.162 44.3992 164.49 44.4434C164.802 44.4788 164.935 44.4611 165.006 44.3727C165.077 44.2754 165.193 44.2577 165.486 44.3108C165.788 44.3727 165.859 44.3638 165.859 44.2489C165.859 44.1516 165.948 44.1251 166.268 44.1693C166.562 44.1958 166.686 44.1781 166.722 44.0897C166.748 44.019 166.864 43.9659 166.979 43.9659C167.113 43.9659 167.193 43.9128 167.193 43.8244C167.193 43.7183 167.246 43.6918 167.406 43.736C167.575 43.7802 167.637 43.7448 167.682 43.621C167.717 43.5061 167.788 43.4707 167.948 43.5061C168.108 43.5326 168.171 43.5061 168.171 43.4C168.171 43.3116 168.251 43.2585 168.384 43.2585C168.544 43.2585 168.606 43.1878 168.677 42.9667C168.74 42.7545 168.802 42.6926 168.935 42.7103C169.077 42.7279 169.14 42.6484 169.246 42.3123C169.344 42.0029 169.433 41.8791 169.566 41.8614C169.691 41.8437 169.78 41.7287 169.842 41.5077C169.913 41.2689 174.447 21.7623 174.793 20.1972C174.829 20.0469 174.802 20.0027 174.66 20.0027C174.491 20.0027 174.482 19.9673 174.527 19.6666C174.562 19.4898 174.607 19.2687 174.633 19.1803C174.66 19.0653 174.616 19.0034 174.482 18.9681C174.313 18.9239 174.296 18.8708 174.34 18.579C174.393 18.2784 174.376 18.2341 174.215 18.2341C174.082 18.2341 174.038 18.1722 174.038 18.0131C174.038 17.8451 173.993 17.792 173.851 17.792C173.709 17.792 173.682 17.7566 173.727 17.624C173.762 17.5002 173.727 17.4383 173.593 17.3941C173.495 17.3676 173.415 17.2615 173.415 17.173C173.415 17.0935 173.335 16.9962 173.238 16.9697C173.131 16.9431 173.06 16.8459 173.06 16.7398C173.06 16.616 173.007 16.5541 172.882 16.5541C172.767 16.5541 172.704 16.4922 172.704 16.3949C172.704 16.2711 172.571 16.1827 172.198 16.0589C171.895 15.9616 171.682 15.829 171.655 15.7406C171.638 15.6433 171.469 15.546 171.246 15.4841C170.313 15.2454 170.082 15.1569 170.082 15.0508C170.082 14.874 169.513 14.7502 169.291 14.874C169.149 14.9447 168.944 14.9359 168.455 14.8298C167.655 14.6706 167.548 14.6618 167.548 14.8121Z" fill="#FBEEE0"/>
</svg>
