<svg width="672" height="672" viewBox="0 0 672 672" fill="none" xmlns="http://www.w3.org/2000/svg">
<path d="M504 56H168C137.072 56 112 81.0721 112 112V560C112 590.928 137.072 616 168 616H504C534.928 616 560 590.928 560 560V112C560 81.0721 534.928 56 504 56Z" stroke="#EBB7D4" stroke-width="40.32" stroke-linecap="round" stroke-linejoin="round"/>
<path d="M336 168H336.281" stroke="#EBB7D4" stroke-width="40.32" stroke-linecap="round" stroke-linejoin="round"/>
<path d="M336 504C397.856 504 448 453.856 448 392C448 330.144 397.856 280 336 280C274.144 280 224 330.144 224 392C224 453.856 274.144 504 336 504Z" stroke="#EBB7D4" stroke-width="40.32" stroke-linecap="round" stroke-linejoin="round"/>
<path d="M336 392H336.281" stroke="#EBB7D4" stroke-width="40.32" stroke-linecap="round" stroke-linejoin="round"/>
</svg>
