<svg width="701" height="701" viewBox="0 0 701 701" fill="none" xmlns="http://www.w3.org/2000/svg">
<path d="M350.5 671.397C527.767 671.397 671.471 527.693 671.471 350.426C671.471 173.159 527.767 29.4556 350.5 29.4556C173.233 29.4556 29.5293 173.159 29.5293 350.426C29.5293 527.693 173.233 671.397 350.5 671.397Z" stroke="#FED4C1" stroke-width="57.7747" stroke-linecap="round" stroke-linejoin="round"/>
<path d="M157.917 350.426C157.917 295.861 180.385 247.715 215.692 215.618" stroke="#FED4C1" stroke-width="57.7747" stroke-linecap="round" stroke-linejoin="round"/>
<path d="M350.5 414.62C385.953 414.62 414.694 385.879 414.694 350.426C414.694 314.972 385.953 286.231 350.5 286.231C315.046 286.231 286.306 314.972 286.306 350.426C286.306 385.879 315.046 414.62 350.5 414.62Z" stroke="#FED4C1" stroke-width="57.7747" stroke-linecap="round" stroke-linejoin="round"/>
<path d="M543.082 350.426C543.082 404.991 520.614 453.136 485.308 485.234" stroke="#FED4C1" stroke-width="57.7747" stroke-linecap="round" stroke-linejoin="round"/>
</svg>
