<svg width="461" height="685" viewBox="0 0 461 685" fill="none" xmlns="http://www.w3.org/2000/svg">
<g clip-path="url(#clip0_587_1237)">
<rect width="461" height="685" rx="16" fill="#EC5C6C"/>
<path d="M461 259.235L461 685L7.26694e-05 685L6.0516e-05 264.876L60.0001 255.672L133 253L269 306L361 306L440 276.5L461 259.235Z" fill="#FEEAE0"/>
<path d="M461 259.235L461 685L7.26694e-05 685L6.0516e-05 264.876L60.0001 255.672L133 253L269 306L361 306L440 276.5L461 259.235Z" fill="#FEEAE0"/>
<path d="M521.606 217.658C438.787 296.329 349.634 324.476 264.806 301.295C220.422 289.163 180.488 262.872 134.57 255.817C31.1174 239.934 -87.0543 286.002 -176 400.034" stroke="#FC9464" stroke-width="14.9655" stroke-miterlimit="1.5" stroke-linecap="round" stroke-linejoin="round"/>
<path d="M86.9523 332.204C80.3511 321.281 79.4151 310.878 83.9768 302.176C86.3639 297.623 90.1895 293.895 92.0594 289.053C96.2708 278.144 94.0743 264.145 83.761 251.707" stroke="#FC9464" stroke-width="10" stroke-miterlimit="1.5" stroke-linecap="round" stroke-linejoin="round"/>
<path d="M98.5692 307.982L87.7856 332.735" stroke="#FC9464" stroke-width="10" stroke-linecap="round"/>
<path d="M67.4252 315.291L87.7045 333.117" stroke="#FC9464" stroke-width="10" stroke-linecap="round"/>
</g>
<defs>
<clipPath id="clip0_587_1237">
<rect width="461" height="685" rx="16" fill="white"/>
</clipPath>
</defs>
</svg>
