<svg viewBox="0 0 870 447" fill="none" xmlns="http://www.w3.org/2000/svg">
<path d="M118.28 356.25L134.6 272.25H150.92L137.72 340.41H173.48L170.24 356.25H118.28ZM179.218 356.25L195.538 272.25H249.898L246.778 288.09H208.858L205.258 306.81H241.978L239.098 321.69H202.258L198.658 340.41H236.698L233.578 356.25H179.218ZM276.718 356.25L293.038 272.25H325.918C342.598 272.25 352.438 283.05 349.318 298.77C347.158 310.41 338.878 319.29 327.958 323.13L340.798 356.25H322.318L310.318 325.17H299.038L293.038 356.25H276.718ZM302.158 309.45H318.718C325.918 309.45 331.918 305.13 332.998 298.77C334.318 292.41 329.998 288.09 322.798 288.09H306.238L302.158 309.45ZM367.235 356.25L374.075 321.45L354.995 272.25H373.235L385.355 304.89L409.955 272.25H428.195L390.515 321.09L383.555 356.25H367.235ZM438.476 356.25L451.916 287.37H428.756L431.636 272.25H494.156L491.276 287.37H468.236L454.796 356.25H438.476ZM537.952 356.25L544.792 320.97H510.112L503.272 356.25H486.952L503.272 272.25H519.592L513.232 305.13H547.912L554.272 272.25H570.592L554.272 356.25H537.952ZM570.624 356.25L586.944 272.25H604.944L619.344 315.09L650.184 272.25H668.184L651.864 356.25H635.544L646.944 297.57L619.464 335.73H611.064L598.464 297.57L586.944 356.25H570.624ZM668.241 356.25L684.561 272.25H738.921L735.801 288.09H697.881L694.281 306.81H731.001L728.121 321.69H691.281L687.681 340.41H725.721L722.601 356.25H668.241Z" fill="#FC9464"/>
<path d="M118.88 415.248L120.032 409.488H133.424L132.272 415.248H118.88ZM155.748 426.72C151.956 426.72 148.836 425.568 146.724 423.216L151.908 418.176C153.204 419.472 155.028 420.384 156.996 420.384C161.172 420.384 164.724 417.456 165.78 412.368L168.42 398.736H158.628L159.876 392.4H176.1L172.26 412.368C170.58 421.2 163.812 426.72 155.748 426.72ZM189.178 426.72C182.218 426.72 176.794 421.056 178.186 414.048L182.362 392.4H188.89L184.81 413.472C184.042 417.408 186.442 420.384 190.426 420.384C194.41 420.384 197.914 417.408 198.73 413.472L202.762 392.4H209.29L205.114 414.048C203.722 421.056 196.186 426.72 189.178 426.72ZM219.562 426.72C213.946 426.72 209.866 424.608 207.706 419.76L213.802 416.352C215.194 418.656 217.642 420.432 220.81 420.432C223.978 420.432 226.57 418.8 227.05 416.304C227.53 413.664 224.938 412.704 221.722 411.744C216.73 410.256 211.642 407.664 212.794 401.52C213.898 395.904 219.322 391.68 225.898 391.68C230.314 391.68 234.778 393.984 236.266 397.392L230.41 401.328C229.258 399.264 227.05 397.968 224.698 397.968C222.106 397.968 219.754 399.36 219.37 401.472C218.794 404.352 221.674 405.264 224.746 406.224C230.842 408.288 234.586 410.928 233.53 416.4C232.378 422.304 226.714 426.72 219.562 426.72ZM241.803 426L247.179 398.448H237.915L239.067 392.4H264.075L262.923 398.448H253.707L248.331 426H241.803ZM273.615 426L280.143 392.4H294.255C300.159 392.4 303.759 396.048 302.799 401.04C302.271 403.728 300.303 406.176 297.615 407.856C300.255 409.44 301.983 412.08 301.263 415.872C300.159 421.728 294.735 426 288.399 426H273.615ZM281.295 420.048H289.503C292.047 420.048 294.303 418.224 294.735 415.872C295.215 413.568 293.679 411.792 291.135 411.792H282.927L281.295 420.048ZM284.031 406.224H291.375C293.631 406.224 295.647 404.256 296.031 402.24C296.415 400.272 295.167 398.352 292.911 398.352H285.567L284.031 406.224ZM304.412 426L310.94 392.4H332.684L331.436 398.736H316.268L314.828 406.224H329.516L328.364 412.176H313.628L312.188 419.664H327.404L326.156 426H304.412ZM328.586 426L346.826 392.4H355.082L360.266 426H353.354L352.394 419.328H339.05L335.498 426H328.586ZM342.026 413.712H351.626L349.61 399.408L342.026 413.712ZM365.834 426L371.21 398.448H361.946L363.098 392.4H388.106L386.954 398.448H377.738L372.362 426H365.834ZM418.046 426L420.782 411.888H406.91L404.174 426H397.646L404.174 392.4H410.702L408.158 405.552H422.03L424.574 392.4H431.102L424.574 426H418.046ZM431.115 426L437.643 392.4H444.171L437.643 426H431.115ZM450.537 426L455.913 398.448H446.649L447.801 392.4H472.809L471.657 398.448H462.441L457.065 426H450.537Z" fill="#EC5C6C"/>
<path d="M179.906 233L200.709 125.927H242.315C274.742 125.927 293.862 148.412 287.897 179.464C281.932 210.515 253.94 233 221.512 233H179.906ZM204.686 212.809H225.489C246.444 212.809 263.117 199.196 266.941 179.464C270.918 159.732 259.446 146.118 238.49 146.118H217.688L204.686 212.809ZM292.237 233L313.04 125.927H382.332L378.355 146.118H330.019L325.43 169.98H372.236L368.565 188.947H321.606L317.017 212.809H365.506L361.529 233H292.237ZM337.055 117.055L353.269 95.3348H375.601L354.493 117.055H337.055ZM377.83 233L398.633 125.927H466.395L462.418 146.118H415.611L410.717 170.745H455.534L451.863 189.865H407.046L398.633 233H377.83ZM457.896 233L478.698 125.927H499.501L478.698 233H457.896ZM499.572 233L520.374 125.927H589.666L585.689 146.118H537.353L532.764 169.98H579.57L575.899 188.947H528.94L524.351 212.809H572.84L568.863 233H499.572ZM580.728 233L584.705 212.809L645.584 146.118H599.237L603.061 125.927H674.341L670.517 146.118L609.638 212.809H659.045L655.068 233H580.728Z" fill="#FC9464"/>
<path d="M538 405.524C567.644 392.565 598.891 393.248 628.034 406.828C643.283 413.934 656.821 424.306 672.662 430.236C708.349 443.591 749.869 442.229 782.053 420.666" stroke="#CC4C94" stroke-width="14.9655" stroke-miterlimit="1.5" stroke-linecap="round" stroke-linejoin="round"/>
<path fill-rule="evenodd" clip-rule="evenodd" d="M759.015 417.823L780.866 275.264C780.866 275.264 771.481 258.94 778.262 239.778C786.529 216.421 813.519 203.949 835.576 211.101C857.632 218.256 875.336 240.499 867.04 268.571C861.875 286.045 848.931 293.378 848.931 293.378L796.219 427.961L781.118 424.094L774.843 422.243L759.015 417.823ZM776.644 406.071L785.788 408.344L828.146 302.45C828.146 302.45 817.24 302.665 809.266 300.311C801.291 297.957 794.293 292.458 794.293 292.458L776.644 406.071ZM791.95 251.744C791.95 251.744 789.151 278.612 814.301 284.732C839.454 290.852 850.399 267.199 850.399 267.199C850.399 267.199 831.577 272.932 817.406 269.184C803.235 265.438 791.95 251.744 791.95 251.744ZM794.829 243.868C794.829 243.868 807.066 256.231 821.603 260.182C836.14 264.134 852.778 259.62 852.778 259.62C852.778 259.62 854.446 231.78 828.936 226.131C803.424 220.483 794.829 243.868 794.829 243.868Z" fill="#CC4C94"/>
<path d="M240.537 0.273926C240.537 0.521973 240.266 0.544525 239.158 0.364136C238.005 0.183746 237.711 0.183746 237.507 0.454315C237.327 0.702362 237.033 0.747467 236.354 0.634705C235.721 0.521973 235.382 0.544525 235.224 0.77002C235.043 0.972961 234.659 1.01807 233.913 0.950409C233.076 0.860199 232.85 0.882751 232.85 1.15335C232.85 1.44647 232.646 1.44647 231.584 1.26608C230.657 1.10825 230.182 1.1308 229.798 1.33374C229.481 1.51413 228.961 1.55923 228.464 1.46902C227.876 1.35629 227.627 1.4014 227.491 1.67197C227.311 1.96512 227.107 1.98767 226.316 1.80728C225.524 1.64941 225.344 1.67197 225.231 1.94257C225.117 2.21317 224.869 2.25824 224.01 2.14551C223.083 2.01022 222.902 2.0553 222.902 2.34845C222.902 2.5965 222.766 2.68668 222.517 2.5965C222.291 2.52884 221.636 2.41611 221.07 2.34845C220.256 2.23572 219.963 2.25824 219.827 2.52884C219.669 2.79944 219.42 2.84454 218.651 2.68668C217.882 2.55139 217.634 2.5965 217.543 2.82199C217.453 3.07001 217.159 3.11511 216.322 3.00238C215.373 2.86707 215.215 2.91217 215.215 3.22787C215.215 3.49844 215.079 3.58865 214.83 3.49844C213.428 3.11511 212.954 3.11511 212.954 3.47589C212.954 3.7916 212.773 3.81415 211.891 3.70139C211.28 3.61121 210.625 3.49844 210.399 3.43082C210.173 3.38571 209.946 3.47589 209.879 3.67883C209.788 3.94943 209.517 3.99454 208.635 3.88177C207.731 3.76904 207.527 3.81415 207.527 4.10727C207.527 4.37787 207.369 4.40042 206.691 4.24258C205.492 3.97198 205.266 3.99454 205.266 4.37787C205.266 4.62592 205.04 4.67099 204.136 4.55826C203.231 4.44553 203.005 4.4906 203.005 4.7612C203.005 5.0318 202.757 5.05435 201.513 4.85141C200.337 4.69354 199.998 4.69354 199.84 4.94159C199.704 5.14453 199.388 5.18964 198.755 5.07687C198.054 4.96414 197.783 5.0318 197.624 5.27982C197.466 5.57297 197.263 5.59552 196.471 5.41513C195.68 5.25729 195.499 5.27982 195.386 5.55042C195.273 5.82101 195.024 5.86609 194.165 5.75336C193.238 5.61807 193.057 5.66318 193.057 5.9563C193.057 6.20435 192.922 6.29453 192.673 6.20435C192.447 6.13669 191.791 6.02396 191.226 5.9563C190.412 5.84357 190.118 5.86609 189.982 6.13669C189.824 6.40729 189.575 6.45239 188.807 6.29453C188.038 6.15924 187.789 6.20435 187.699 6.42984C187.608 6.67786 187.314 6.72296 186.478 6.61023C185.528 6.47491 185.37 6.52002 185.37 6.83572C185.37 7.10629 185.234 7.1965 184.986 7.10629C183.584 6.72296 183.109 6.72296 183.109 7.08374C183.109 7.39944 182.928 7.422 182.046 7.30923C181.436 7.21906 180.78 7.10629 180.554 7.03867C180.328 6.99356 180.102 7.08374 180.034 7.28668C179.944 7.55728 179.672 7.60239 178.791 7.48962C177.886 7.37689 177.683 7.422 177.683 7.69257C177.683 7.98572 177.502 8.00827 176.733 7.85043C175.422 7.60239 175.422 7.60239 175.422 7.98572C175.422 8.23375 175.196 8.27885 174.291 8.16611C173.477 8.07591 173.161 8.12102 173.161 8.32396C173.161 8.5269 172.776 8.54944 171.578 8.43669C170.38 8.32396 169.995 8.3465 169.995 8.54944C169.995 8.75238 169.702 8.79749 168.865 8.68474C167.915 8.54944 167.735 8.59454 167.735 8.88768C167.735 9.24846 167.26 9.24846 165.881 8.86513C165.609 8.77493 165.474 8.86513 165.474 9.13573C165.474 9.4514 165.315 9.49651 164.343 9.36121C163.394 9.22592 163.213 9.27101 163.213 9.5867C163.213 9.78964 163.077 9.90239 162.919 9.83475C162.738 9.76709 162.037 9.65434 161.336 9.56415C160.228 9.42886 160.047 9.4514 160.047 9.76709C160.047 10.0377 159.912 10.1053 159.482 10.0151C159.166 9.94748 158.668 9.85728 158.352 9.78964C157.945 9.69945 157.786 9.76709 157.786 10.0151C157.786 10.3083 157.583 10.3534 156.656 10.2181C155.684 10.0828 155.525 10.1279 155.525 10.4436C155.525 10.7142 155.39 10.8044 155.141 10.7142C153.739 10.3308 153.264 10.3308 153.264 10.6916C153.264 10.9847 153.084 11.0298 152.134 10.8945C151.23 10.7818 151.003 10.8044 151.003 11.0749C151.003 11.3455 150.8 11.3681 149.986 11.2553C149.195 11.1426 148.901 11.1651 148.765 11.4357C148.63 11.6838 148.336 11.7514 147.657 11.6612C146.889 11.5485 146.73 11.5936 146.64 11.9544C146.549 12.2475 146.414 12.3377 146.12 12.2249C145.894 12.1348 145.622 12.2249 145.442 12.473C145.283 12.6985 144.967 12.8338 144.741 12.7887C144.447 12.7436 144.266 12.9014 144.108 13.3975C143.927 13.8936 143.746 14.0514 143.384 14.0289C143.09 13.9838 142.864 14.1416 142.796 14.4122C142.728 14.6828 142.48 14.8632 142.208 14.8632C141.869 14.8632 141.666 15.1338 141.349 16.0132C141.033 16.8701 140.852 17.1181 140.558 17.0279C140.241 16.9603 140.083 17.1857 139.812 18.0877C139.631 18.7416 131.333 54.4594 121.385 97.483C111.437 140.507 103.23 175.773 103.184 175.864C102.958 176.224 102.144 175.818 102.28 175.435C102.37 175.142 102.167 174.984 101.376 174.781C100.607 174.578 100.358 174.398 100.403 174.127C100.449 173.857 100.223 173.699 99.6121 173.541C99.0242 173.406 98.6851 173.158 98.5494 172.819C98.4138 172.481 98.0746 172.233 97.4868 172.098C96.8989 171.963 96.6502 171.782 96.6954 171.534C96.7407 171.286 96.3563 171.083 95.271 170.767C94.2536 170.474 93.8014 170.226 93.8014 169.978C93.8014 169.73 93.3718 169.505 92.3318 169.212C91.2239 168.918 90.8622 168.738 90.9074 168.467C90.9526 168.197 90.5004 167.971 88.9856 167.566C87.516 167.16 87.0186 166.934 87.0638 166.664C87.109 166.438 86.8603 166.258 86.3403 166.122C82.8584 165.243 82.0445 164.972 82.0445 164.679C82.0445 164.296 81.0271 164.003 74.3573 162.469C66.9639 160.756 66.2857 160.643 65.9013 160.959C65.6752 161.162 65.0195 161.094 63.1655 160.733C61.2211 160.372 60.6785 160.327 60.5428 160.553C60.4072 160.801 60.0228 160.801 58.621 160.553C57.6714 160.395 56.7444 160.215 56.5636 160.147C56.4053 160.079 56.2696 160.192 56.2696 160.395C56.2696 160.823 56.2696 160.823 54.5739 160.508C53.4661 160.305 53.1947 160.327 52.9913 160.598C52.7878 160.868 52.5391 160.891 51.5669 160.711C50.6625 160.53 50.2329 160.53 49.8259 160.756C49.5094 160.936 48.9894 160.981 48.492 160.891C47.9041 160.778 47.6554 160.823 47.5198 161.094C47.3389 161.387 47.1354 161.41 46.3667 161.252C45.5527 161.071 45.4171 161.094 45.304 161.432C45.191 161.748 45.0327 161.793 44.2188 161.635C43.4953 161.522 43.224 161.545 43.0883 161.793C42.9526 162.018 42.6361 162.064 41.9126 161.996C41.0761 161.883 40.8952 161.928 40.8952 162.221C40.8952 162.515 40.7595 162.56 40.2169 162.447C39.6743 162.334 39.5386 162.379 39.5386 162.695C39.5386 163.011 39.3803 163.056 38.5212 162.943C37.7072 162.83 37.4585 162.875 37.3455 163.146C37.255 163.371 37.0516 163.462 36.6898 163.371C36.3281 163.281 36.1698 163.349 36.102 163.619C36.0341 163.935 35.8306 164.003 35.0845 163.958C34.5871 163.913 34.0897 163.98 33.9993 164.116C33.9314 164.251 33.6149 164.364 33.2984 164.364C32.9592 164.364 32.7558 164.499 32.7558 164.724C32.7558 164.995 32.6201 165.063 32.2131 164.95C31.7835 164.837 31.6253 164.927 31.5122 165.243C31.4218 165.536 31.2409 165.626 30.8339 165.536C30.4044 165.468 30.2687 165.536 30.2687 165.829C30.2687 166.122 30.133 166.19 29.7035 166.122C29.3191 166.032 29.1156 166.122 29.0252 166.393C28.9347 166.664 28.7313 166.754 28.3469 166.664C27.9399 166.596 27.7817 166.664 27.7817 166.934C27.7817 167.16 27.5782 167.295 27.2164 167.295C26.8547 167.295 26.6512 167.43 26.6512 167.656C26.6512 167.926 26.5155 167.994 26.1086 167.881C25.679 167.768 25.5207 167.859 25.4077 168.174C25.3172 168.467 25.1363 168.558 24.8424 168.49C24.5711 168.422 24.345 168.513 24.2546 168.738C24.1867 168.941 23.8702 169.099 23.5763 169.099C23.2371 169.099 23.0337 169.234 23.0337 169.46C23.0337 169.73 22.8754 169.798 22.491 169.73C22.0841 169.64 21.9032 169.73 21.8354 170.046C21.7675 170.271 21.5188 170.452 21.2249 170.452C20.8858 170.452 20.6597 170.655 20.4788 171.128C20.2753 171.647 20.117 171.76 19.7327 171.669C19.3709 171.579 19.2127 171.669 19.1222 172.008C19.0544 172.323 18.8735 172.414 18.557 172.323C18.1952 172.233 18.0596 172.368 17.8561 173C17.63 173.631 17.4943 173.767 17.1326 173.676C16.7934 173.586 16.6352 173.676 16.5447 174.037C16.4543 174.375 16.2734 174.511 15.9569 174.466C15.5951 174.42 15.4369 174.578 15.256 175.142C15.0751 175.773 14.9621 175.864 14.5325 175.773C14.0803 175.661 13.9899 175.751 13.8542 176.45C13.7185 177.126 13.6281 177.239 13.1985 177.171C12.7689 177.081 12.6333 177.194 12.4298 177.916C12.2263 178.569 12.0907 178.727 11.7515 178.637C11.4124 178.547 11.2541 178.705 11.0506 179.359C10.8471 179.99 10.6889 180.17 10.3497 180.08C10.0106 179.99 9.85232 180.193 9.55839 181.185C9.24186 182.155 9.08359 182.38 8.69923 182.335C8.31487 182.29 8.17921 182.516 7.93051 183.463C7.65919 184.432 7.52354 184.635 7.13918 184.59C6.75481 184.545 6.59655 184.793 6.2348 186.056C5.89565 187.251 5.69217 187.589 5.30781 187.634C4.92344 187.679 4.74257 188.063 4.29038 189.686C3.83819 191.332 3.67992 191.67 3.36339 191.58C2.88859 191.468 2.54945 192.572 0.989389 199.472C-0.141086 204.523 -0.163696 204.726 0.311104 204.726C0.718075 204.726 0.718075 205.11 0.311104 206.981C-0.118477 208.898 -0.0958674 209.236 0.333713 209.236C0.718075 209.236 0.718075 209.845 0.288494 211.852C0.175447 212.438 0.220666 212.596 0.605027 212.709C0.989389 212.844 1.012 212.957 0.853732 213.926C0.605027 215.144 0.718075 215.55 1.21548 215.55C1.46419 215.55 1.55463 215.685 1.46419 215.933C1.39636 216.159 1.28331 216.7 1.21548 217.173C1.07983 217.85 1.12505 218.008 1.50941 218.121C1.89377 218.256 1.93899 218.414 1.84855 219.158C1.7355 219.902 1.78072 220.06 2.11986 220.06C2.4364 220.06 2.48162 220.218 2.41379 220.939C2.34596 221.683 2.41379 221.864 2.75293 221.954C3.11468 222.044 3.18251 222.224 3.09207 222.901C3.00164 223.577 3.06946 223.758 3.43122 223.848C3.79297 223.938 3.83819 224.096 3.74775 224.818C3.65731 225.584 3.70253 225.697 4.06428 225.697C4.38082 225.697 4.49386 225.855 4.49386 226.261C4.49386 226.622 4.62952 226.824 4.83301 226.824C5.08171 226.824 5.17215 227.073 5.17215 227.704C5.17215 228.38 5.26259 228.606 5.60173 228.696C5.91826 228.764 6.0087 228.944 5.91826 229.282C5.82782 229.666 5.89565 229.756 6.30262 229.756C6.75481 229.756 6.80003 229.846 6.7096 230.658C6.64177 231.402 6.7096 231.56 7.02613 231.56C7.29744 231.56 7.4331 231.74 7.4331 232.101C7.4331 232.462 7.59137 232.687 7.9079 232.755C8.24704 232.845 8.36009 233.003 8.24704 233.251C8.1566 233.522 8.24704 233.679 8.56358 233.747C8.81228 233.815 9.01577 234.063 9.01577 234.311C9.01577 234.581 9.21925 234.807 9.49057 234.874C9.8071 234.965 9.92015 235.145 9.85232 235.416C9.78449 235.686 9.89754 235.844 10.2593 235.934C10.6437 236.024 10.7567 236.182 10.6663 236.498C10.5984 236.769 10.7115 236.949 11.028 237.039C11.3219 237.107 11.5028 237.332 11.5028 237.625C11.5028 237.964 11.6385 238.099 11.9776 238.099C12.3394 238.099 12.4298 238.212 12.3394 238.55C12.2489 238.888 12.362 239.046 12.7689 239.136C13.1759 239.249 13.289 239.384 13.1985 239.677C13.1081 239.948 13.2211 240.106 13.5377 240.196C13.809 240.264 13.9899 240.489 13.9899 240.782C13.9899 241.098 14.1255 241.256 14.442 241.256C14.736 241.256 14.8942 241.414 14.8942 241.684C14.8942 241.932 15.0977 242.203 15.3464 242.271C15.5951 242.338 15.7986 242.586 15.7986 242.812C15.7986 243.082 16.0925 243.308 16.703 243.488C17.4491 243.714 17.6074 243.849 17.4943 244.187C17.4039 244.503 17.4943 244.616 17.8787 244.683C18.2178 244.728 18.3987 244.909 18.3987 245.179C18.3987 245.495 18.6474 245.675 19.3031 245.878C19.9362 246.059 20.1849 246.239 20.1396 246.51C20.0944 246.758 20.2753 246.938 20.6597 247.028C21.0666 247.119 21.2023 247.276 21.1119 247.547C21.0214 247.84 21.2249 247.998 21.9936 248.201C22.8076 248.404 22.9658 248.539 22.8754 248.877C22.785 249.216 22.9658 249.351 23.7572 249.509C24.4807 249.667 24.7294 249.825 24.7068 250.118C24.6842 250.411 24.9329 250.591 25.6564 250.772C26.3573 250.975 26.6512 251.155 26.6512 251.448C26.6512 251.696 26.9451 251.922 27.5556 252.102C28.1208 252.282 28.4599 252.508 28.4599 252.733C28.4599 252.981 28.9121 253.229 29.9296 253.523C31.0148 253.838 31.3992 254.041 31.3992 254.334C31.3992 254.627 31.7835 254.83 32.8462 255.101C33.8636 255.394 34.2706 255.597 34.248 255.845C34.2254 256.093 34.4967 256.274 35.0167 256.409C37.5942 257.063 38.1594 257.288 38.0464 257.604C37.9107 257.897 38.9734 258.326 41.0082 258.731C42.5005 259.047 43.1787 259.34 43.0883 259.633C42.93 259.972 43.9022 260.242 51.4312 261.978C58.8245 263.647 59.0054 263.692 59.2315 263.309C59.3898 263.038 60.9498 263.241 64.1151 263.963C64.4995 264.053 64.6352 263.985 64.6352 263.692C64.6352 263.467 64.7482 263.354 64.9291 263.422C65.0873 263.489 66.0143 263.67 66.9865 263.827C68.4336 264.053 68.7727 264.053 68.931 263.805C69.1118 263.534 70.0841 263.579 71.5989 263.963C71.9606 264.053 72.0963 263.985 72.0963 263.692C72.0963 263.399 72.232 263.331 72.6615 263.444C74.199 263.827 75.1938 263.85 75.3295 263.512C75.4425 263.241 75.6234 263.219 76.4147 263.377C77.206 263.557 77.4095 263.534 77.5678 263.264C77.7261 262.993 77.9974 262.948 78.7661 263.061C79.5574 263.151 79.8061 263.106 79.9192 262.835C79.987 262.632 80.1679 262.52 80.3036 262.565C80.4618 262.61 80.914 262.7 81.321 262.768C81.8862 262.858 82.0445 262.813 82.0445 262.52C82.0445 262.227 82.2254 262.181 83.175 262.294C84.102 262.407 84.3054 262.362 84.3054 262.069C84.3054 261.821 84.4637 261.753 84.8933 261.843C85.2776 261.911 85.5264 261.843 85.5942 261.618C85.7072 261.347 85.9559 261.302 86.7247 261.415C87.4934 261.505 87.6969 261.482 87.6969 261.212C87.6969 260.986 87.923 260.874 88.3751 260.874C88.8047 260.874 89.0534 260.761 89.0534 260.558C89.0534 260.31 89.2795 260.265 89.9804 260.355C90.6813 260.468 90.9752 260.4 91.1109 260.152C91.2239 259.927 91.5179 259.836 91.8796 259.927C92.3092 259.994 92.4449 259.927 92.4449 259.633C92.4449 259.34 92.5805 259.273 92.9875 259.34C93.3945 259.43 93.5753 259.34 93.6432 259.025C93.7336 258.686 93.8919 258.641 94.3441 258.754C94.7962 258.867 94.9319 258.799 94.9319 258.528C94.9319 258.303 95.1354 258.168 95.4971 258.168C95.8589 258.168 96.0624 258.032 96.0624 257.807C96.0624 257.536 96.198 257.469 96.6276 257.581C97.0346 257.694 97.2381 257.627 97.3285 257.378C97.419 257.198 97.7129 257.04 98.0068 257.04C98.3459 257.04 98.5494 256.905 98.5494 256.679C98.5494 256.409 98.7077 256.341 99.0921 256.409C99.499 256.499 99.6799 256.409 99.7703 256.093C99.8382 255.777 99.9964 255.687 100.313 255.8C100.652 255.89 100.81 255.8 100.901 255.507C101.014 255.191 101.195 255.101 101.602 255.191C102.009 255.259 102.167 255.191 102.167 254.921C102.167 254.695 102.37 254.56 102.732 254.56C103.094 254.56 103.297 254.425 103.297 254.222C103.297 254.019 103.501 253.883 103.84 253.883C104.224 253.883 104.451 253.68 104.654 253.184C104.88 252.666 105.061 252.53 105.4 252.621C105.694 252.688 105.875 252.598 105.943 252.282C106.033 251.944 106.191 251.854 106.576 251.944C106.983 252.057 107.118 251.944 107.299 251.335C107.458 250.794 107.616 250.636 108 250.659C108.294 250.704 108.52 250.546 108.611 250.253C108.724 249.937 108.905 249.825 109.199 249.892C109.515 249.982 109.673 249.825 109.899 249.238C110.103 248.652 110.284 248.472 110.623 248.517C110.962 248.562 111.12 248.404 111.279 247.84C111.437 247.299 111.64 247.119 112.002 247.119C112.364 247.119 112.567 246.938 112.726 246.375C112.884 245.833 113.042 245.675 113.381 245.721C113.743 245.766 113.901 245.608 114.06 245.044C114.218 244.548 114.444 244.277 114.76 244.232C115.122 244.187 115.348 243.872 115.62 243.037C115.936 242.113 116.094 241.91 116.434 242C116.773 242.09 116.931 241.887 117.247 240.873C117.564 239.903 117.722 239.677 118.039 239.745C118.378 239.835 118.536 239.565 118.921 238.212C119.328 236.859 119.463 236.588 119.825 236.678C120.232 236.791 120.435 236.273 121.114 233.589C121.249 233.048 121.453 232.777 121.769 232.732C122.131 232.687 122.312 232.372 122.583 231.379C122.968 230.072 156.43 85.5771 156.43 85.3065C156.43 85.2388 156.633 85.2163 156.905 85.284C157.176 85.3516 157.402 85.284 157.492 85.081C157.583 84.833 157.854 84.7879 158.713 84.9006C159.663 85.0359 159.821 84.9908 159.821 84.6751C159.821 84.4045 159.957 84.3143 160.228 84.4045C161.607 84.7879 162.082 84.7879 162.082 84.4271C162.082 84.1339 162.263 84.0889 163.213 84.2241C164.117 84.3369 164.343 84.3143 164.343 84.0437C164.343 83.7732 164.592 83.7506 165.835 83.9536C167.011 84.1339 167.35 84.1114 167.508 83.8634C167.644 83.6604 167.983 83.6153 168.729 83.7055C169.543 83.8183 169.769 83.7957 169.769 83.5251C169.769 83.2771 169.995 83.232 170.9 83.3447C171.736 83.4349 172.03 83.3898 172.03 83.1869C172.03 82.9839 172.324 82.9388 173.161 83.0516C174.11 83.1869 174.291 83.1418 174.291 82.8486C174.291 82.6006 174.427 82.5104 174.698 82.6006C174.902 82.6457 175.625 82.781 176.281 82.8486C177.298 82.9839 177.457 82.9614 177.457 82.6232C177.457 82.2624 177.909 82.2624 179.333 82.6457C179.582 82.7359 179.718 82.6457 179.718 82.3751C179.718 82.0594 179.876 82.0143 180.848 82.1496C181.775 82.2849 181.979 82.2398 181.979 81.9467C181.979 81.6986 182.137 81.631 182.544 81.7212C182.86 81.7888 183.358 81.879 183.674 81.9467C184.104 82.0369 184.239 81.9692 184.239 81.6986C184.239 81.383 184.42 81.3604 185.528 81.4957C186.229 81.5859 186.93 81.6986 187.111 81.7663C187.269 81.8339 187.405 81.7212 187.405 81.5182C187.405 81.2026 187.586 81.1575 188.513 81.2928C189.372 81.4055 189.621 81.3604 189.734 81.0898C189.847 80.8192 190.028 80.7967 190.728 80.9545C191.881 81.2251 191.927 81.2026 191.927 80.7967C191.927 80.5035 192.108 80.481 192.967 80.6163C193.713 80.729 194.052 80.6839 194.188 80.481C194.346 80.233 194.685 80.233 195.861 80.3908C197.104 80.5937 197.353 80.5712 197.353 80.3006C197.353 80.03 197.579 79.9849 198.483 80.0977C199.388 80.2104 199.614 80.1653 199.614 79.9173C199.614 79.5339 199.614 79.5339 200.925 79.782C201.694 79.9398 201.875 79.9173 201.875 79.6241C201.875 79.3535 202.078 79.331 202.983 79.4437C203.819 79.5565 204.113 79.5114 204.204 79.2859C204.294 79.0379 204.565 79.0153 205.425 79.1506C207.03 79.4212 207.301 79.3986 207.301 78.9928C207.301 78.6545 207.799 78.6545 209.178 79.0378C209.426 79.128 209.562 79.0378 209.562 78.7898C209.562 78.4741 209.72 78.429 210.693 78.5643C211.642 78.6996 211.823 78.6545 211.823 78.3614C211.823 78.0908 211.981 78.0231 212.388 78.1133C212.705 78.181 213.202 78.2712 213.519 78.3388C213.926 78.429 214.084 78.3614 214.084 78.1133C214.084 77.7976 214.288 77.7751 215.282 77.8878C215.915 77.9555 216.639 78.0682 216.865 78.1359C217.114 78.2261 217.249 78.1359 217.249 77.8878C217.249 77.5947 217.43 77.5496 218.357 77.6849C219.216 77.7976 219.465 77.7525 219.578 77.482C219.691 77.2114 219.872 77.1888 220.573 77.3467C221.726 77.6172 221.771 77.5947 221.771 77.1888C221.771 76.8957 221.952 76.8731 222.811 77.0084C223.557 77.1212 223.897 77.0761 224.032 76.8731C224.19 76.6251 224.53 76.6251 225.705 76.7829C226.949 76.9859 227.198 76.9633 227.198 76.6927C227.198 76.4221 227.424 76.3771 228.328 76.4898C229.232 76.6025 229.458 76.5574 229.458 76.3094C229.458 75.9261 229.458 75.9261 230.77 76.1741C231.539 76.332 231.719 76.3094 231.719 76.0163C231.719 75.7457 231.923 75.7231 232.759 75.8359C233.551 75.9261 233.89 75.881 234.071 75.6555C234.252 75.4074 234.546 75.3624 235.292 75.4976C236.06 75.6555 236.241 75.6329 236.241 75.3398C236.241 75.0918 236.467 75.0241 237.281 75.1369C238.028 75.2045 238.344 75.1594 238.434 74.9339C238.502 74.7535 238.796 74.6182 239.09 74.6182C239.429 74.6182 239.633 74.4829 239.633 74.2574C239.633 73.9868 239.768 73.9192 240.175 74.032C240.605 74.1447 240.763 74.0545 240.876 73.7388C240.967 73.4457 241.148 73.3555 241.555 73.4457C241.962 73.5133 242.12 73.4457 242.12 73.1751C242.12 72.9496 242.323 72.8143 242.662 72.8143C243.069 72.8143 243.228 72.6339 243.409 72.0702C243.567 71.529 243.725 71.3712 244.064 71.4163C244.426 71.4613 244.584 71.2584 244.856 70.4016C245.104 69.6123 245.33 69.2966 245.67 69.2515C245.986 69.2065 246.212 68.9133 246.37 68.3496C246.551 67.7408 258.082 17.9975 258.964 14.0063C259.054 13.623 258.987 13.5102 258.625 13.5102C258.195 13.5102 258.173 13.42 258.286 12.6534C258.376 12.2024 258.489 11.6387 258.557 11.4132C258.625 11.12 258.512 10.9622 258.173 10.872C257.743 10.7592 257.698 10.624 257.811 9.87984C257.946 9.11317 257.901 9.00043 257.494 9.00043C257.155 9.00043 257.042 8.84258 257.042 8.43669C257.042 8.00827 256.929 7.87299 256.567 7.87299C256.206 7.87299 256.138 7.78278 256.251 7.44455C256.341 7.12885 256.251 6.97101 255.912 6.85828C255.663 6.79062 255.459 6.52002 255.459 6.29453C255.459 6.09158 255.256 5.84357 255.007 5.77591C254.736 5.70825 254.555 5.46024 254.555 5.18964C254.555 4.87393 254.419 4.71609 254.103 4.71609C253.809 4.71609 253.651 4.55826 253.651 4.31021C253.651 3.99454 253.312 3.76904 252.362 3.45334C251.593 3.20532 251.051 2.86707 250.983 2.6416C250.938 2.39355 250.508 2.14551 249.943 1.98767C247.569 1.37885 246.981 1.15335 246.981 0.882751C246.981 0.431763 245.534 0.116089 244.969 0.431763C244.607 0.612183 244.087 0.58963 242.843 0.319031C240.808 -0.086853 240.537 -0.109406 240.537 0.273926Z" fill="#ECAC64"/>
<rect x="774.826" y="76" width="20" height="70" rx="10" transform="rotate(63.8326 774.826 76)" fill="#ECAC64"/>
<rect x="706.87" y="103.134" width="20" height="70" rx="10" transform="rotate(-156.176 706.87 103.134)" fill="#ECAC64"/>
</svg>
