<svg width="672" height="672" viewBox="0 0 672 672" fill="none" xmlns="http://www.w3.org/2000/svg">
<path d="M390.32 504C421.248 504 446.32 478.928 446.32 448C446.32 417.072 421.248 392 390.32 392C359.392 392 334.32 417.072 334.32 448C334.32 478.928 359.392 504 390.32 504Z" stroke="#F7BEC4" stroke-width="50.4" stroke-linecap="round" stroke-linejoin="round"/>
<path d="M166.32 560C197.248 560 222.32 534.928 222.32 504C222.32 473.072 197.248 448 166.32 448C135.392 448 110.32 473.072 110.32 504C110.32 534.928 135.392 560 166.32 560Z" stroke="#F7BEC4" stroke-width="50.4" stroke-linecap="round" stroke-linejoin="round"/>
<path d="M110.32 347.2V112C110.32 97.1481 116.22 82.9043 126.722 72.4023C137.224 61.9002 151.468 56.0002 166.32 56.0002H404.32L558.32 210V560C558.32 574.852 552.42 589.096 541.918 599.598C531.416 610.1 517.172 616 502.32 616H292.32" stroke="#F7BEC4" stroke-width="50.4" stroke-linecap="round" stroke-linejoin="round"/>
<path d="M222.32 485.52V288.4L446.32 252V448" stroke="#F7BEC4" stroke-width="50.4" stroke-linecap="round" stroke-linejoin="round"/>
</svg>
